<svg width="43" height="21" viewBox="0 0 43 21" fill="none" xmlns="http://www.w3.org/2000/svg">
<path d="M4.5 0.793945H38.5C40.433 0.793945 42 2.36095 42 4.29395V16.2939C42 18.2269 40.433 19.7939 38.5 19.7939H4.5C2.567 19.7939 1 18.2269 1 16.2939V4.29395C1 2.36095 2.567 0.793945 4.5 0.793945Z" fill="#C8CEFC"/>
<path d="M4.5 0.793945H38.5C40.433 0.793945 42 2.36095 42 4.29395V16.2939C42 18.2269 40.433 19.7939 38.5 19.7939H4.5C2.567 19.7939 1 18.2269 1 16.2939V4.29395C1 2.36095 2.567 0.793945 4.5 0.793945Z" stroke="#8895F9"/>
<path d="M15.897 8.58372H13.772C13.7114 8.23523 13.5997 7.92652 13.4368 7.65758C13.2739 7.38485 13.0713 7.15379 12.8288 6.9644C12.5864 6.77501 12.3099 6.63296 11.9993 6.53826C11.6925 6.43978 11.361 6.39054 11.005 6.39054C10.3724 6.39054 9.81179 6.54963 9.32315 6.86781C8.83452 7.1822 8.45194 7.64432 8.17543 8.25417C7.89891 8.86023 7.76065 9.60076 7.76065 10.4758C7.76065 11.3659 7.89891 12.1159 8.17543 12.7258C8.45573 13.3318 8.8383 13.7902 9.32315 14.1008C9.81179 14.4076 10.3705 14.561 10.9993 14.561C11.3478 14.561 11.6735 14.5155 11.9766 14.4246C12.2834 14.3299 12.558 14.1917 12.8004 14.0099C13.0466 13.828 13.2531 13.6046 13.4197 13.3394C13.5902 13.0742 13.7076 12.7712 13.772 12.4303L15.897 12.4417C15.8175 12.9947 15.6451 13.5136 15.38 13.9985C15.1186 14.4833 14.7758 14.9114 14.3516 15.2826C13.9273 15.65 13.4311 15.9379 12.8629 16.1462C12.2947 16.3508 11.6641 16.453 10.9709 16.453C9.94815 16.453 9.03527 16.2163 8.23224 15.7428C7.42921 15.2693 6.79664 14.5856 6.33452 13.6917C5.8724 12.7977 5.64134 11.7258 5.64134 10.4758C5.64134 9.22198 5.87429 8.15001 6.3402 7.25985C6.80611 6.36591 7.44058 5.6822 8.24361 5.20872C9.04664 4.73523 9.95573 4.49849 10.9709 4.49849C11.6186 4.49849 12.2209 4.5894 12.7777 4.77122C13.3345 4.95304 13.8307 5.22008 14.2663 5.57235C14.7019 5.92084 15.0599 6.34887 15.3402 6.85645C15.6243 7.36023 15.8099 7.93599 15.897 8.58372ZM21.1683 14.4303V6.56667H22.9524V14.4303H21.1683ZM18.1286 11.3905V9.60645H25.9922V11.3905H18.1286ZM31.9339 14.4303V6.56667H33.718V14.4303H31.9339ZM28.8942 11.3905V9.60645H36.7578V11.3905H28.8942Z" fill="#2B3587"/>
</svg>
