<svg width="278" height="224" viewBox="0 0 278 224" fill="none" xmlns="http://www.w3.org/2000/svg">
<path d="M218.1 38.9336H23.251C10.4098 38.9336 0 50.4233 0 64.5967V197.77C0 211.943 10.4098 223.433 23.251 223.433H218.1C230.087 218.784 235.63 214.136 241.35 197.77V64.5967C241.35 50.4233 230.941 38.9336 218.1 38.9336Z" fill="#FFAA00"/>
<path d="M69.9022 23.2012H23.251C10.4098 23.2012 0 33.6595 0 46.5604V63.5792C0 76.4801 10.4098 75.0085 23.251 75.0085H63.0112C75.8523 75.0085 86.2621 64.5503 86.2621 51.6493V46.5604C86.2621 33.6594 69.9022 23.2012 69.9022 23.2012Z" fill="#FFAA00"/>
<path d="M88.5567 27.3306C80.9869 23.2012 76.1599 23.2012 65.2544 23.2012L70.203 47.9786L107.369 39.7195C103.545 37.4252 95.0015 30.8463 88.5567 27.3306Z" fill="#FFAA00"/>
<path d="M217.795 0H132.159C119.343 0 104.86 10.0681 100.578 23.5072L64 145.493C64 158.475 74.3894 169 87.2054 169H175.874C193.538 169 197.999 162.528 204.422 145.493C204.422 145.493 241 36.4899 241 23.5072C241 10.5245 230.611 0 217.795 0Z" fill="white"/>
<path d="M254.749 56H68.2933C55.4521 56 40.9402 65.9489 36.6495 79.229L0 199.771C0 212.6 10.4098 223 23.251 223H212.746C230.445 223 234.914 216.604 241.35 199.771C241.35 199.771 278 92.0581 278 79.229C278 66.4 267.59 56 254.749 56Z" fill="#FFE5B0"/>
</svg>
