<svg width="61" height="20" viewBox="0 0 61 20" fill="none" xmlns="http://www.w3.org/2000/svg">
<path d="M4 0.5H57C58.933 0.5 60.5 2.067 60.5 4V16C60.5 17.933 58.933 19.5 57 19.5H4C2.067 19.5 0.5 17.933 0.5 16V4C0.5 2.12727 1.97083 0.598421 3.82031 0.504883L4 0.5Z" fill="#C7CFE9"/>
<path d="M4 0.5H57C58.933 0.5 60.5 2.067 60.5 4V16C60.5 17.933 58.933 19.5 57 19.5H4C2.067 19.5 0.5 17.933 0.5 16V4C0.5 2.12727 1.97083 0.598421 3.82031 0.504883L4 0.5Z" stroke="#00528C"/>
<path d="M4.10866 16V4.36364H8.4723C9.36624 4.36364 10.1162 4.5303 10.7223 4.86364C11.3322 5.19697 11.7924 5.6553 12.103 6.23864C12.4174 6.81818 12.5746 7.47727 12.5746 8.21591C12.5746 8.96212 12.4174 9.625 12.103 10.2045C11.7886 10.7841 11.3246 11.2405 10.7109 11.5739C10.0973 11.9034 9.34162 12.0682 8.44389 12.0682H5.55185V10.3352H8.1598C8.68253 10.3352 9.11056 10.2443 9.44389 10.0625C9.77723 9.88068 10.0234 9.63068 10.1825 9.3125C10.3454 8.99432 10.4268 8.62879 10.4268 8.21591C10.4268 7.80303 10.3454 7.43939 10.1825 7.125C10.0234 6.81061 9.77533 6.56629 9.43821 6.39205C9.10488 6.21402 8.67495 6.125 8.14844 6.125H6.21662V16H4.10866ZM15.593 19.2727C15.3127 19.2727 15.0533 19.25 14.8146 19.2045C14.5798 19.1629 14.3923 19.1136 14.2521 19.0568L14.7294 17.4545C15.0286 17.5417 15.2957 17.5833 15.5305 17.5795C15.7654 17.5758 15.9718 17.5019 16.1499 17.358C16.3317 17.2178 16.4851 16.983 16.6101 16.6534L16.7862 16.1818L13.6214 7.27273H15.8033L17.8146 13.8636H17.9055L19.9226 7.27273H22.1101L18.6158 17.0568C18.4529 17.5189 18.237 17.9148 17.968 18.2443C17.6991 18.5777 17.3696 18.8314 16.9794 19.0057C16.593 19.1837 16.1309 19.2727 15.593 19.2727ZM27.8913 7.27273V8.86364H22.8743V7.27273H27.8913ZM24.1129 5.18182H26.1697V13.375C26.1697 13.6515 26.2114 13.8636 26.2947 14.0114C26.3819 14.1553 26.4955 14.2538 26.6357 14.3068C26.7758 14.3598 26.9311 14.3864 27.1016 14.3864C27.2304 14.3864 27.3478 14.3769 27.4538 14.358C27.5637 14.339 27.647 14.322 27.7038 14.3068L28.0504 15.9148C27.9406 15.9527 27.7834 15.9943 27.5788 16.0398C27.3781 16.0852 27.1319 16.1117 26.8402 16.1193C26.325 16.1345 25.861 16.0568 25.4482 15.8864C25.0353 15.7121 24.7076 15.4432 24.4652 15.0795C24.2266 14.7159 24.1091 14.2614 24.1129 13.7159V5.18182ZM31.8558 10.8864V16H29.799V4.36364H31.8104V8.75568H31.9126C32.1172 8.26326 32.4335 7.875 32.8615 7.59091C33.2933 7.30303 33.8426 7.15909 34.5092 7.15909C35.1153 7.15909 35.6437 7.28598 36.0945 7.53977C36.5452 7.79356 36.8937 8.16477 37.1399 8.65341C37.3899 9.14205 37.5149 9.73864 37.5149 10.4432V16H35.4581V10.7614C35.4581 10.1742 35.3066 9.7178 35.0036 9.39205C34.7043 9.0625 34.2839 8.89773 33.7422 8.89773C33.3786 8.89773 33.0528 8.97727 32.7649 9.13636C32.4808 9.29167 32.2573 9.51705 32.0945 9.8125C31.9354 10.108 31.8558 10.4659 31.8558 10.8864ZM43.4183 16.1705C42.5661 16.1705 41.8274 15.983 41.2024 15.608C40.5774 15.233 40.0926 14.7083 39.7479 14.0341C39.407 13.3598 39.2365 12.572 39.2365 11.6705C39.2365 10.7689 39.407 9.97917 39.7479 9.30114C40.0926 8.62311 40.5774 8.09659 41.2024 7.72159C41.8274 7.34659 42.5661 7.15909 43.4183 7.15909C44.2706 7.15909 45.0092 7.34659 45.6342 7.72159C46.2592 8.09659 46.7422 8.62311 47.0831 9.30114C47.4278 9.97917 47.6001 10.7689 47.6001 11.6705C47.6001 12.572 47.4278 13.3598 47.0831 14.0341C46.7422 14.7083 46.2592 15.233 45.6342 15.608C45.0092 15.983 44.2706 16.1705 43.4183 16.1705ZM43.4297 14.5227C43.8918 14.5227 44.2782 14.3958 44.5888 14.142C44.8994 13.8845 45.1304 13.5398 45.282 13.108C45.4373 12.6761 45.5149 12.1951 45.5149 11.6648C45.5149 11.1307 45.4373 10.6477 45.282 10.2159C45.1304 9.7803 44.8994 9.43371 44.5888 9.17614C44.2782 8.91856 43.8918 8.78977 43.4297 8.78977C42.9562 8.78977 42.5623 8.91856 42.2479 9.17614C41.9373 9.43371 41.7043 9.7803 41.549 10.2159C41.3975 10.6477 41.3217 11.1307 41.3217 11.6648C41.3217 12.1951 41.3975 12.6761 41.549 13.108C41.7043 13.5398 41.9373 13.8845 42.2479 14.142C42.5623 14.3958 42.9562 14.5227 43.4297 14.5227ZM51.4027 10.8864V16H49.3459V7.27273H51.3118V8.75568H51.4141C51.6148 8.26705 51.9349 7.87879 52.3743 7.59091C52.8175 7.30303 53.3648 7.15909 54.0163 7.15909C54.6186 7.15909 55.1432 7.28788 55.5902 7.54545C56.041 7.80303 56.3894 8.17614 56.6357 8.66477C56.8857 9.15341 57.0088 9.74621 57.005 10.4432V16H54.9482V10.7614C54.9482 10.178 54.7966 9.72159 54.4936 9.39205C54.1944 9.0625 53.7796 8.89773 53.2493 8.89773C52.8894 8.89773 52.5694 8.97727 52.2891 9.13636C52.0125 9.29167 51.7947 9.51705 51.6357 9.8125C51.4804 10.108 51.4027 10.4659 51.4027 10.8864Z" fill="#003F6B"/>
</svg>
