<svg width="19" height="19" viewBox="0 0 19 19" fill="none" xmlns="http://www.w3.org/2000/svg">
<path d="M7.11914 10.2916H9.49414H11.8691" stroke="#9EA2AE" stroke-width="1.5" stroke-linecap="round" stroke-linejoin="round"/>
<path d="M2.41419 3.46061C2.38949 3.27537 2.45342 3.0909 2.60783 2.98563C3.21741 2.57006 5.12535 1.58337 9.5 1.58337C13.8746 1.58337 15.7826 2.57006 16.3922 2.98563C16.5466 3.0909 16.6105 3.27537 16.5858 3.46061L15.2587 13.4139C15.1219 14.4397 14.5144 15.343 13.6158 15.8565V15.8565C11.0655 17.3138 7.93454 17.3138 5.38415 15.8565V15.8565C4.48561 15.343 3.87807 14.4397 3.7413 13.4139L2.41419 3.46061Z" stroke="#9EA2AE" stroke-width="1.5"/>
<path d="M2.375 3.95829C4.41071 6.0694 14.5893 6.06937 16.625 3.95829" stroke="#9EA2AE" stroke-width="1.5"/>
</svg>
