<svg width="20" height="20" viewBox="0 0 20 20" fill="none" xmlns="http://www.w3.org/2000/svg">
<path d="M4 0.5H16C17.933 0.5 19.5 2.067 19.5 4V16C19.5 17.933 17.933 19.5 16 19.5H4C2.067 19.5 0.5 17.933 0.5 16V4C0.5 2.067 2.067 0.5 4 0.5Z" fill="#B0DEFF"/>
<path d="M4 0.5H16C17.933 0.5 19.5 2.067 19.5 4V16C19.5 17.933 17.933 19.5 16 19.5H4C2.067 19.5 0.5 17.933 0.5 16V4C0.5 2.067 2.067 0.5 4 0.5Z" stroke="#54B8FF"/>
<path d="M15.1626 8.28977H13.0376C12.977 7.94129 12.8653 7.63258 12.7024 7.36364C12.5395 7.09091 12.3369 6.85985 12.0945 6.67045C11.852 6.48106 11.5755 6.33901 11.2649 6.24432C10.9581 6.14583 10.6267 6.09659 10.2706 6.09659C9.63802 6.09659 9.07741 6.25568 8.58878 6.57386C8.10014 6.88826 7.71757 7.35038 7.44105 7.96023C7.16454 8.56629 7.02628 9.30682 7.02628 10.1818C7.02628 11.072 7.16454 11.822 7.44105 12.4318C7.72135 13.0379 8.10393 13.4962 8.58878 13.8068C9.07741 14.1136 9.63613 14.267 10.2649 14.267C10.6134 14.267 10.9392 14.2216 11.2422 14.1307C11.549 14.036 11.8236 13.8977 12.0661 13.7159C12.3123 13.5341 12.5187 13.3106 12.6854 13.0455C12.8558 12.7803 12.9732 12.4773 13.0376 12.1364L15.1626 12.1477C15.0831 12.7008 14.9107 13.2197 14.6456 13.7045C14.3842 14.1894 14.0414 14.6174 13.6172 14.9886C13.1929 15.3561 12.6967 15.6439 12.1286 15.8523C11.5604 16.0568 10.9297 16.1591 10.2365 16.1591C9.21378 16.1591 8.3009 15.9223 7.49787 15.4489C6.69484 14.9754 6.06226 14.2917 5.60014 13.3977C5.13802 12.5038 4.90696 11.4318 4.90696 10.1818C4.90696 8.92803 5.13991 7.85606 5.60582 6.96591C6.07173 6.07197 6.7062 5.38826 7.50923 4.91477C8.31226 4.44129 9.22135 4.20455 10.2365 4.20455C10.8842 4.20455 11.4865 4.29545 12.0433 4.47727C12.6001 4.65909 13.0964 4.92614 13.532 5.27841C13.9676 5.62689 14.3255 6.05492 14.6058 6.5625C14.8899 7.06629 15.0755 7.64205 15.1626 8.28977Z" fill="#00528C"/>
</svg>
