<svg width="42" height="20" viewBox="0 0 42 20" fill="none" xmlns="http://www.w3.org/2000/svg">
<path d="M4 0.5H38C39.933 0.5 41.5 2.067 41.5 4V16C41.5 17.933 39.933 19.5 38 19.5H4C2.067 19.5 0.5 17.933 0.5 16V4C0.5 2.067 2.067 0.5 4 0.5Z" fill="#FFE5B0"/>
<path d="M4 0.5H38C39.933 0.5 41.5 2.067 41.5 4V16C41.5 17.933 39.933 19.5 38 19.5H4C2.067 19.5 0.5 17.933 0.5 16V4C0.5 2.067 2.067 0.5 4 0.5Z" stroke="#FFBB33"/>
<path d="M8.73864 4.36364H10.8295V12.5455C10.8258 13.2955 10.6667 13.9413 10.3523 14.483C10.0379 15.0208 9.59848 15.4356 9.03409 15.7273C8.47348 16.0152 7.82008 16.1591 7.07386 16.1591C6.39205 16.1591 5.77841 16.0379 5.23295 15.7955C4.69129 15.5492 4.26136 15.1856 3.94318 14.7045C3.625 14.2235 3.46591 13.625 3.46591 12.9091H5.5625C5.56629 13.2235 5.63447 13.4943 5.76705 13.7216C5.90341 13.9489 6.09091 14.1231 6.32955 14.2443C6.56818 14.3655 6.8428 14.4261 7.15341 14.4261C7.49053 14.4261 7.77652 14.3561 8.01136 14.2159C8.24621 14.072 8.42424 13.8598 8.54545 13.5795C8.67045 13.2992 8.73485 12.9545 8.73864 12.5455V4.36364ZM15.5369 16.1761C14.9839 16.1761 14.4858 16.0777 14.0426 15.8807C13.6032 15.6799 13.2547 15.3845 12.9972 14.9943C12.7434 14.6042 12.6165 14.1231 12.6165 13.5511C12.6165 13.0587 12.7074 12.6515 12.8892 12.3295C13.071 12.0076 13.3191 11.75 13.6335 11.5568C13.9479 11.3636 14.3021 11.2178 14.696 11.1193C15.0938 11.017 15.5047 10.9432 15.929 10.8977C16.4403 10.8447 16.8551 10.7973 17.1733 10.7557C17.4915 10.7102 17.7225 10.642 17.8665 10.5511C18.0142 10.4564 18.0881 10.3106 18.0881 10.1136V10.0795C18.0881 9.65152 17.9612 9.32008 17.7074 9.08523C17.4536 8.85038 17.0881 8.73295 16.6108 8.73295C16.107 8.73295 15.7074 8.8428 15.4119 9.0625C15.1203 9.2822 14.9233 9.54167 14.821 9.84091L12.9006 9.56818C13.0521 9.03788 13.3021 8.5947 13.6506 8.23864C13.9991 7.87879 14.4252 7.60985 14.929 7.43182C15.4328 7.25 15.9896 7.15909 16.5994 7.15909C17.0199 7.15909 17.4384 7.20833 17.8551 7.30682C18.2718 7.4053 18.6525 7.56818 18.9972 7.79545C19.3419 8.01894 19.6184 8.32386 19.8267 8.71023C20.0388 9.09659 20.1449 9.57955 20.1449 10.1591V16H18.1676V14.8011H18.0994C17.9744 15.0436 17.7983 15.2708 17.571 15.483C17.3475 15.6913 17.0653 15.8598 16.7244 15.9886C16.3873 16.1136 15.9915 16.1761 15.5369 16.1761ZM16.071 14.6648C16.4839 14.6648 16.8419 14.5833 17.1449 14.4205C17.4479 14.2538 17.6809 14.0341 17.8438 13.7614C18.0104 13.4886 18.0938 13.1913 18.0938 12.8693V11.8409C18.0294 11.8939 17.9195 11.9432 17.7642 11.9886C17.6127 12.0341 17.4422 12.0739 17.2528 12.108C17.0634 12.142 16.8759 12.1723 16.6903 12.1989C16.5047 12.2254 16.3438 12.2481 16.2074 12.267C15.9006 12.3087 15.6259 12.3769 15.3835 12.4716C15.1411 12.5663 14.9498 12.6989 14.8097 12.8693C14.6695 13.036 14.5994 13.2519 14.5994 13.517C14.5994 13.8958 14.7377 14.1818 15.0142 14.375C15.2907 14.5682 15.643 14.6648 16.071 14.6648ZM29.696 7.27273L26.5881 16H24.3153L21.2074 7.27273H23.4006L25.4062 13.7557H25.4972L27.5085 7.27273H29.696ZM33.3807 16.1761C32.8277 16.1761 32.3295 16.0777 31.8864 15.8807C31.447 15.6799 31.0985 15.3845 30.8409 14.9943C30.5871 14.6042 30.4602 14.1231 30.4602 13.5511C30.4602 13.0587 30.5511 12.6515 30.733 12.3295C30.9148 12.0076 31.1629 11.75 31.4773 11.5568C31.7917 11.3636 32.1458 11.2178 32.5398 11.1193C32.9375 11.017 33.3485 10.9432 33.7727 10.8977C34.2841 10.8447 34.6989 10.7973 35.017 10.7557C35.3352 10.7102 35.5663 10.642 35.7102 10.5511C35.858 10.4564 35.9318 10.3106 35.9318 10.1136V10.0795C35.9318 9.65152 35.8049 9.32008 35.5511 9.08523C35.2973 8.85038 34.9318 8.73295 34.4545 8.73295C33.9508 8.73295 33.5511 8.8428 33.2557 9.0625C32.964 9.2822 32.767 9.54167 32.6648 9.84091L30.7443 9.56818C30.8958 9.03788 31.1458 8.5947 31.4943 8.23864C31.8428 7.87879 32.2689 7.60985 32.7727 7.43182C33.2765 7.25 33.8333 7.15909 34.4432 7.15909C34.8636 7.15909 35.2822 7.20833 35.6989 7.30682C36.1155 7.4053 36.4962 7.56818 36.8409 7.79545C37.1856 8.01894 37.4621 8.32386 37.6705 8.71023C37.8826 9.09659 37.9886 9.57955 37.9886 10.1591V16H36.0114V14.8011H35.9432C35.8182 15.0436 35.642 15.2708 35.4148 15.483C35.1913 15.6913 34.9091 15.8598 34.5682 15.9886C34.2311 16.1136 33.8352 16.1761 33.3807 16.1761ZM33.9148 14.6648C34.3277 14.6648 34.6856 14.5833 34.9886 14.4205C35.2917 14.2538 35.5246 14.0341 35.6875 13.7614C35.8542 13.4886 35.9375 13.1913 35.9375 12.8693V11.8409C35.8731 11.8939 35.7633 11.9432 35.608 11.9886C35.4564 12.0341 35.286 12.0739 35.0966 12.108C34.9072 12.142 34.7197 12.1723 34.5341 12.1989C34.3485 12.2254 34.1875 12.2481 34.0511 12.267C33.7443 12.3087 33.4697 12.3769 33.2273 12.4716C32.9848 12.5663 32.7936 12.6989 32.6534 12.8693C32.5133 13.036 32.4432 13.2519 32.4432 13.517C32.4432 13.8958 32.5814 14.1818 32.858 14.375C33.1345 14.5682 33.4867 14.6648 33.9148 14.6648Z" fill="#B57900"/>
</svg>
