<svg width="25" height="25" viewBox="0 0 25 25" fill="none" xmlns="http://www.w3.org/2000/svg">
<path d="M9.95898 13.7959H12.959H15.959" stroke="#131927" stroke-width="1.5" stroke-linecap="round" stroke-linejoin="round"/>
<path d="M4.00598 5.0898C3.98128 4.90456 4.0459 4.71928 4.19813 4.61089C4.894 4.11542 7.28099 2.7959 12.9668 2.7959C18.6526 2.7959 21.0396 4.11542 21.7355 4.61088C21.8877 4.71928 21.9523 4.90456 21.9276 5.0898L20.2284 17.8337C20.0635 19.0703 19.3312 20.1591 18.2481 20.778L17.9282 20.9608C14.8539 22.7176 11.0797 22.7176 8.00541 20.9608L7.68553 20.778C6.6024 20.1591 5.87005 19.0703 5.70517 17.8337L4.00598 5.0898Z" stroke="#131927" stroke-width="1.5"/>
<path d="M3.9668 5.7959C6.53823 8.46256 19.3954 8.46252 21.9668 5.7959" stroke="#131927" stroke-width="1.5"/>
</svg>
