<svg width="24" height="25" viewBox="0 0 24 25" fill="none" xmlns="http://www.w3.org/2000/svg">
<path d="M20 12.3563C20 10.5463 16.24 8.37127 11.993 8.35627C7.775 8.34127 4 10.5343 4 12.3563C4 14.1813 7.754 16.3623 11.997 16.3563C16.252 16.3503 20 14.1763 20 12.3563ZM12 18.3563C6.958 18.3633 2 15.6703 2 12.3563C2 9.04227 6.984 6.33927 12 6.35627C17.016 6.37327 22 9.04227 22 12.3563C22 15.6703 17.042 18.3493 12 18.3563ZM12 16.3563C10.9391 16.3563 9.92172 15.9348 9.17157 15.1847C8.42143 14.4345 8 13.4171 8 12.3563C8 11.2954 8.42143 10.278 9.17157 9.52784C9.92172 8.77769 10.9391 8.35627 12 8.35627C13.0609 8.35627 14.0783 8.77769 14.8284 9.52784C15.5786 10.278 16 11.2954 16 12.3563C16 13.4171 15.5786 14.4345 14.8284 15.1847C14.0783 15.9348 13.0609 16.3563 12 16.3563ZM12 14.3563C12.5304 14.3563 13.0391 14.1456 13.4142 13.7705C13.7893 13.3954 14 12.8867 14 12.3563C14 11.8258 13.7893 11.3171 13.4142 10.9421C13.0391 10.567 12.5304 10.3563 12 10.3563C11.4696 10.3563 10.9609 10.567 10.5858 10.9421C10.2107 11.3171 10 11.8258 10 12.3563C10 12.8867 10.2107 13.3954 10.5858 13.7705C10.9609 14.1456 11.4696 14.3563 12 14.3563Z" fill="#697077"/>
</svg>
