<svg width="240" height="199" viewBox="0 0 240 199" fill="none" xmlns="http://www.w3.org/2000/svg">
<path d="M216.565 15.4902H23.0873C10.3366 15.4902 0 25.8749 0 38.6851V175.805C0 188.615 10.3366 198.999 23.0873 198.999H216.565C229.316 198.999 239.652 188.615 239.652 175.805V38.6851C239.652 25.8749 229.316 15.4902 216.565 15.4902Z" fill="#6D717F"/>
<path d="M62.5678 0H23.0873C10.3366 0 0 10.3847 0 23.1948V40.0939C0 52.904 10.3366 51.4428 23.0873 51.4428H62.5678C75.3186 51.4428 85.6551 41.0581 85.6551 28.248V23.1948C85.6551 10.3847 75.3186 0 62.5678 0Z" fill="#6D717F"/>
<path d="M87.9332 4.09955C82.1014 -0.274324 70.0125 -0.152827 64.697 0.454657L69.7088 24.6023L106.613 16.4013C102.817 14.1231 93.7651 8.47343 87.9332 4.09955Z" fill="#6D717F"/>
<path d="M216.879 32H23.1209C10.3516 32 0 42.4 0 55.229V175.771C0 188.6 10.3516 199 23.1209 199H216.879C229.648 199 240 188.6 240 175.771V55.229C240 42.4 229.648 32 216.879 32Z" fill="#E5E7EA"/>
</svg>
