<svg width="24" height="25" viewBox="0 0 24 25" fill="none" xmlns="http://www.w3.org/2000/svg">
<path d="M3 19.1321V5.13208C3 4.02751 3.89543 3.13208 5 3.13208H19C20.1046 3.13208 21 4.02751 21 5.13208V19.1321C21 20.2367 20.1046 21.1321 19 21.1321H5C3.89543 21.1321 3 20.2367 3 19.1321Z" stroke="#131927" stroke-width="1.5"/>
<path d="M13.8562 13.9818C14.4747 13.3616 14.8571 12.5058 14.8571 11.5607C14.8571 9.6671 13.3221 8.13208 11.4286 8.13208C9.53502 8.13208 8 9.6671 8 11.5607C8 13.4542 9.53502 14.9892 11.4286 14.9892C12.377 14.9892 13.2355 14.6041 13.8562 13.9818ZM13.8562 13.9818L16 16.1321" stroke="#131927" stroke-width="1.5" stroke-linecap="round" stroke-linejoin="round"/>
</svg>
