<svg width="1200" height="1200" viewBox="0 0 1200 1200" fill="none" xmlns="http://www.w3.org/2000/svg">
  <rect width="1200" height="1200" rx="220" fill="#F4F7FF"/>
  <circle cx="930" cy="250" r="120" fill="#DDE6FF"/>
  <circle cx="250" cy="950" r="160" fill="#E8F7F1"/>
  <rect x="270" y="210" width="660" height="780" rx="64" fill="white" stroke="#D7DEEA" stroke-width="28"/>
  <rect x="360" y="330" width="300" height="34" rx="17" fill="#7181F8"/>
  <rect x="360" y="430" width="480" height="28" rx="14" fill="#C8D0E2"/>
  <rect x="360" y="510" width="420" height="28" rx="14" fill="#C8D0E2"/>
  <rect x="360" y="590" width="470" height="28" rx="14" fill="#C8D0E2"/>
  <path d="M450 790L545 885L750 680" stroke="#28B485" stroke-width="54" stroke-linecap="round" stroke-linejoin="round"/>
  <circle cx="820" cy="820" r="118" fill="#FFE2A8"/>
  <path d="M820 724L849 783L914 792L867 838L878 902L820 872L762 902L773 838L726 792L791 783L820 724Z" fill="#FFB323"/>
</svg>
