<svg width="329" height="391" viewBox="0 0 329 391" fill="none" xmlns="http://www.w3.org/2000/svg">
<path d="M231.863 390.467C229.546 390.459 227.71 390.523 225.882 390.427C222.169 390.232 220.021 388.366 219.896 384.512C219.859 383.348 219.883 382.181 219.883 381.015C219.888 314.22 219.925 247.426 219.828 180.632C219.822 176.127 221.068 172.711 224.368 169.6C245.794 149.409 267.068 129.056 288.529 108.903C290.089 107.438 293.335 105.916 294.713 106.601C296.275 107.377 297.374 110.611 297.377 112.778C297.508 202.559 297.499 292.339 297.487 382.12C297.486 388.839 295.872 390.439 289.314 390.446C270.325 390.467 251.336 390.461 231.863 390.467Z" fill="#7483F8"/>
<path d="M235.619 62.408C245.822 52.8199 255.677 43.3733 265.781 34.2012C269.231 31.0692 269.295 29.2234 265.641 26.0232C259.264 20.4387 253.413 14.2361 247.556 8.08838C246.348 6.82046 245.133 4.28259 245.637 3.01242C246.163 1.6914 248.7 0.988372 250.485 0.40866C251.867 -0.0401318 253.446 0.021667 254.937 0.020263C277.095 -0.000733035 299.253 -0.00991906 321.411 0.0150139C328.066 0.0224909 328.787 0.815917 328.786 7.55392C328.786 30.0452 328.848 52.5369 328.695 75.0271C328.68 77.2697 327.361 79.5035 326.647 81.7414C324.309 80.9135 321.434 80.6838 319.73 79.1515C313.172 73.2534 306.993 66.9335 300.661 60.783C299.374 59.5332 298.036 58.336 296.362 56.7795C286.1 66.7673 276.164 76.529 266.129 86.1877C241.657 109.742 217.097 133.206 192.65 156.788C169.399 179.217 146.28 201.785 123.033 224.219C113.217 233.692 103.327 243.097 93.2131 252.248C91.3226 253.958 88.2148 255.148 85.6574 255.169C59.6691 255.381 33.6785 255.319 7.68865 255.285C2.67607 255.278 0.251208 253.092 0.153765 248.057C-0.0267146 238.731 -0.0723697 229.395 0.148333 220.071C0.29552 213.851 2.87938 211.694 9.42226 211.683C31.4137 211.647 53.4055 211.599 75.3963 211.716C78.8023 211.734 81.2691 210.784 83.7596 208.376C112.009 181.061 140.392 153.883 168.707 126.635C187.184 108.853 205.599 91.0069 224.066 73.2145C227.778 69.638 231.598 66.1733 235.619 62.408Z" fill="#7584F8"/>
<path d="M197.022 385.558C196.203 389.309 194.06 390.487 190.754 390.479C169.434 390.423 148.113 390.429 126.793 390.482C122.242 390.494 119.985 388.422 119.985 383.876C119.984 347.231 119.997 310.586 119.965 273.942C119.96 268.216 123.974 265.048 127.54 261.604C133.043 256.288 138.683 251.113 144.191 245.801C157.733 232.741 171.213 219.615 184.776 206.577C186.682 204.744 188.939 203.281 190.991 201.594C194.327 198.852 196.066 200.53 197.092 203.836C197.428 204.92 197.443 206.133 197.443 207.287C197.452 265.585 197.445 323.883 197.425 382.182C197.425 383.173 197.245 384.165 197.022 385.558Z" fill="#7483F8"/>
<path d="M96.1192 284.642C96.4916 290.987 96.7556 296.969 96.7639 302.951C96.8008 329.448 96.7834 355.944 96.7404 382.44C96.7299 388.905 95.1748 390.441 88.8089 390.445C62.1459 390.465 35.4829 390.465 8.81993 390.448C1.77895 390.443 0.21117 388.955 0.157337 381.448C0.0379221 364.784 0.0323375 348.119 0.116444 331.455C0.187886 317.3 0.413898 303.145 0.645252 288.991C0.742298 283.055 1.89714 281.858 7.63875 281.849C34.8015 281.809 61.9647 281.774 89.1266 281.938C91.3867 281.952 93.6378 283.463 96.1192 284.642Z" fill="#7383F8"/>
</svg>
