<svg version="1.1" id="Layer_1" xmlns="http://www.w3.org/2000/svg" xmlns:xlink="http://www.w3.org/1999/xlink" x="0px" y="0px"
	 width="100%" viewBox="0 0 1080 1080" enable-background="new 0 0 1080 1080" xml:space="preserve">
<path fill="#FFFFFF" opacity="1.000000" stroke="none" 
	d="
M598.000000,1081.000000 
	C398.689606,1081.000000 199.879227,1081.000000 1.034416,1081.000000 
	C1.034416,721.064514 1.034416,361.128967 1.034416,1.096730 
	C360.893951,1.096730 720.787903,1.096730 1080.840942,1.096730 
	C1080.840942,360.999939 1080.840942,720.999939 1080.840942,1081.000000 
	C920.128479,1081.000000 759.314270,1081.000000 598.000000,1081.000000 
M490.578339,689.909424 
	C509.567291,689.904846 528.556274,689.910828 547.545227,689.889893 
	C554.103210,689.882629 555.716675,688.282288 555.717590,681.563904 
	C555.729980,591.783203 555.739136,502.002411 555.607788,412.221863 
	C555.604614,410.054688 554.505920,406.820526 552.944153,406.044617 
	C551.565613,405.359680 548.319946,406.881653 546.760132,408.346436 
	C525.299011,428.500061 504.024567,448.852417 482.598999,469.044250 
	C479.298889,472.154327 478.052673,475.570251 478.059204,480.075867 
	C478.156219,546.869934 478.118835,613.664246 478.113739,680.458496 
	C478.113647,681.624451 478.089691,682.791443 478.127350,683.956238 
	C478.251984,687.810181 480.400360,689.676208 484.113190,689.871094 
	C485.940796,689.967102 487.776855,689.902954 490.578339,689.909424 
M493.599304,362.100769 
	C489.829254,365.617035 486.009552,369.081787 482.297485,372.658234 
	C463.830658,390.450684 445.415649,408.296997 426.938141,426.078308 
	C398.623230,453.326416 370.240570,480.504333 341.991180,507.820099 
	C339.500702,510.228241 337.033844,511.178070 333.627899,511.159973 
	C311.637054,511.042938 289.645264,511.090515 267.653839,511.126862 
	C261.110962,511.137695 258.527100,513.294983 258.379913,519.514709 
	C258.159210,528.838867 258.204865,538.174805 258.385345,547.500916 
	C258.482788,552.535278 260.907654,554.722168 265.920227,554.728760 
	C291.910095,554.762878 317.900726,554.824768 343.888947,554.613037 
	C346.446411,554.592224 349.554199,553.402100 351.444641,551.691589 
	C361.558563,542.540466 371.448395,533.135986 381.264771,523.662720 
	C404.511749,501.228333 427.630096,478.660675 450.882019,456.231445 
	C475.328552,432.649933 499.888489,409.186066 524.361023,385.631409 
	C534.395996,375.972748 544.331848,366.211029 554.593140,356.223297 
	C556.267822,357.779724 557.605591,358.976959 558.892273,360.226715 
	C565.224304,366.377258 571.403076,372.697144 577.961487,378.595245 
	C579.665344,380.127594 582.540833,380.357208 584.878235,381.185150 
	C585.592102,378.947266 586.911072,376.713501 586.926331,374.470856 
	C587.079346,351.980621 587.017212,329.488953 587.018005,306.997681 
	C587.018250,300.259674 586.297180,299.466248 579.643005,299.458771 
	C557.484924,299.433838 535.326782,299.443024 513.168701,299.464020 
	C511.677307,299.465424 510.098511,299.403625 508.716644,299.852417 
	C506.931427,300.432129 504.394104,301.135162 503.869049,302.456177 
	C503.364258,303.726349 504.579895,306.264221 505.787872,307.532135 
	C511.644806,313.679840 517.495483,319.882477 523.872620,325.466919 
	C527.527039,328.667145 527.462830,330.512970 524.012512,333.644989 
	C513.908447,342.817078 504.053619,352.263672 493.599304,362.100769 
M455.380188,684.599548 
	C455.476318,683.608215 455.656311,682.616821 455.656647,681.625488 
	C455.676819,623.327209 455.683960,565.028931 455.675018,506.730652 
	C455.674835,505.576752 455.659912,504.363617 455.323608,503.279999 
	C454.297424,499.973419 452.559143,498.295685 449.222260,501.038055 
	C447.170471,502.724274 444.913818,504.187927 443.007660,506.020386 
	C429.444550,519.059143 415.965179,532.184814 402.422455,545.244751 
	C396.914429,550.556396 391.274902,555.731750 385.771271,561.047791 
	C382.205963,564.491516 378.191437,567.660034 378.196533,573.385620 
	C378.228973,610.030212 378.215912,646.674866 378.216217,683.319458 
	C378.216248,687.865295 380.473663,689.937561 385.024231,689.926086 
	C406.344635,689.872253 427.665253,689.866821 448.985626,689.922241 
	C452.292145,689.930847 454.434753,688.753052 455.380188,684.599548 
M354.124664,583.722839 
	C351.869354,582.907104 349.618256,581.395325 347.358093,581.381653 
	C320.196228,581.217468 293.033051,581.252625 265.870270,581.293152 
	C260.128662,581.301697 258.973816,582.498413 258.876770,588.434998 
	C258.645416,602.588806 258.419403,616.743713 258.347961,630.898987 
	C258.263855,647.562805 258.269440,664.228088 258.388855,680.891602 
	C258.442688,688.398376 260.010468,689.886841 267.051453,689.891357 
	C293.714447,689.908508 320.377411,689.908630 347.040405,689.889099 
	C353.406342,689.884460 354.961456,688.349182 354.971954,681.883789 
	C355.014954,655.387634 355.032288,628.891235 354.995422,602.395081 
	C354.987091,596.412781 354.723083,590.430908 354.124664,583.722839 
M733.039124,438.379303 
	C730.718628,431.961548 728.224121,425.599304 726.150574,419.102753 
	C725.098938,415.808044 723.336304,414.647247 719.969360,414.818268 
	C715.317566,415.054535 710.644653,414.871063 705.980835,414.876678 
	C698.862061,414.885254 698.852539,414.888641 698.851562,421.771851 
	C698.847778,447.914246 698.850830,474.056671 698.851318,500.199066 
	C698.851562,511.612335 698.851501,511.612335 710.187378,511.587402 
	C717.072815,511.572266 717.092896,511.572266 717.096558,504.760895 
	C717.107178,484.838257 717.100281,464.915619 717.100281,443.771515 
	C718.036865,445.288422 718.453491,445.760376 718.650085,446.310883 
	C725.923035,466.679932 733.254333,487.028931 740.352844,507.458771 
	C741.520691,510.820007 743.428040,511.996338 746.626160,511.562836 
	C750.070984,511.095917 754.289062,513.366638 756.187439,507.845764 
	C760.244934,496.045349 764.815430,484.422089 769.114807,472.703888 
	C772.519348,463.424713 775.832947,454.112183 779.186890,444.814484 
	C779.974731,463.282501 779.967834,481.554749 779.977234,499.827026 
	C779.983276,511.616608 779.994019,511.616577 791.862000,511.585114 
	C798.531494,511.567413 798.644836,511.487396 798.645325,504.961670 
	C798.647339,477.311798 798.629944,449.661896 798.616028,422.012024 
	C798.615479,420.846558 798.996399,419.419312 798.466187,418.574280 
	C797.572571,417.150269 796.177185,415.171631 794.840942,415.046265 
	C789.221924,414.519196 783.546387,414.600677 777.891968,414.442810 
	C774.280212,414.342010 772.268677,415.894287 771.013428,419.483063 
	C766.233398,433.148956 761.140564,446.705750 756.132446,460.291473 
	C753.858887,466.459015 751.509888,472.598694 748.788818,479.830841 
	C743.332458,465.451782 738.332031,452.274200 733.039124,438.379303 
M610.294678,456.500000 
	C610.294373,471.332672 610.283997,486.165344 610.296875,500.998016 
	C610.306946,512.641846 609.348083,511.587097 620.678223,511.589600 
	C631.065430,511.591888 631.069031,511.575592 631.073425,501.316315 
	C631.078003,490.747070 631.074463,480.177795 631.074463,469.608551 
	C631.589417,469.298401 632.104431,468.988281 632.619385,468.678162 
	C633.285156,469.798126 633.834534,471.009979 634.634644,472.024017 
	C642.883057,482.476990 651.136719,492.926361 659.473816,503.308594 
	C661.641785,506.008423 663.857178,510.339539 666.480469,510.688141 
	C674.030457,511.691559 681.800049,511.042297 689.483398,511.042297 
	C689.789795,510.589691 690.096191,510.137054 690.402588,509.684448 
	C676.914856,493.418182 663.427124,477.151917 649.955811,460.905457 
	C650.664795,460.002930 651.057861,459.469757 651.484131,458.964691 
	C662.651855,445.734650 673.838135,432.520142 684.961670,419.253021 
	C685.746826,418.316528 686.073853,416.995911 686.614014,415.853973 
	C685.311218,415.374817 684.021179,414.527802 682.703430,414.482391 
	C677.876038,414.315857 672.992798,414.018951 668.225586,414.579346 
	C665.752808,414.870026 662.739929,416.271027 661.237549,418.171600 
	C652.463745,429.271240 644.083130,440.681061 635.517029,451.946106 
	C634.430725,453.374695 633.036865,454.569397 631.062256,456.625641 
	C631.062256,446.578003 631.062012,437.916901 631.062317,429.255798 
	C631.062927,414.066254 631.064270,414.187561 615.671143,414.344849 
	C611.457397,414.387878 610.180725,415.976837 610.239868,420.002625 
	C610.413635,431.832794 610.298035,443.667236 610.294678,456.500000 
M869.030823,428.513733 
	C869.032837,444.846771 869.037354,461.179779 869.035278,477.512817 
	C869.034668,482.486664 868.190430,487.155334 864.199951,490.667633 
	C857.170532,496.854797 849.045410,496.487762 841.175720,493.470184 
	C834.303589,490.835114 831.502380,484.969666 831.567810,477.475769 
	C831.735229,458.311066 831.533081,439.143250 831.663513,419.977936 
	C831.690918,415.950073 830.457581,414.079590 826.222839,414.371948 
	C822.739380,414.612427 819.224487,414.497711 815.726990,414.405762 
	C812.391785,414.318115 811.024658,415.613617 811.046692,419.141571 
	C811.175842,439.806976 811.106567,460.473572 811.143188,481.139709 
	C811.145813,482.626251 811.353271,484.133331 811.644287,485.595276 
	C814.661865,500.753845 826.084106,510.849213 844.282654,513.231506 
	C866.881958,516.189819 890.405762,503.220520 889.724854,474.873108 
	C889.300781,457.216675 889.607727,439.542511 889.599670,421.876312 
	C889.596313,414.424347 889.611572,414.424347 882.138611,414.417145 
	C869.049438,414.404510 869.049438,414.404510 869.030823,428.513733 
M652.331177,573.193298 
	C651.674316,579.657593 647.882019,583.723816 641.831970,584.996765 
	C634.699158,586.497498 627.807434,585.639343 622.736572,579.440369 
	C616.696289,572.056213 615.962891,557.251831 621.178101,549.208252 
	C628.340881,538.160889 644.227417,538.080750 650.752197,549.058960 
	C653.778381,554.150635 657.052246,555.059204 663.346436,552.395752 
	C662.002441,542.875366 657.073364,535.852661 647.895020,532.859314 
	C633.880127,528.288574 618.265442,531.277466 610.477295,545.293274 
	C602.416748,559.799194 605.062988,579.866638 617.074036,588.541992 
	C621.457520,591.708191 627.123352,593.679504 632.492920,594.757446 
	C639.695801,596.203430 646.684204,594.426880 652.701782,588.692139 
	C652.920227,590.242004 652.832092,591.568237 653.167908,591.686035 
	C655.541687,592.518799 657.981384,593.440002 660.446411,593.595093 
	C661.382080,593.653870 663.299255,591.773804 663.307861,590.764893 
	C663.382935,581.948914 663.055176,573.130432 663.012024,564.311890 
	C662.998901,561.609985 661.792297,560.896790 659.352051,560.934082 
	C653.523438,561.023193 647.687683,561.101562 641.864319,560.903809 
	C638.324402,560.783691 636.368713,561.356689 636.323914,565.673645 
	C636.277710,570.116699 638.118591,570.885559 641.987183,570.861206 
	C645.408447,570.839600 648.835876,571.780151 652.331177,573.193298 
M639.196167,634.294983 
	C633.908875,632.843811 628.543335,631.624695 623.356506,629.875671 
	C618.277527,628.162842 616.961426,623.336914 620.213257,619.682068 
	C625.098328,614.191528 636.740356,615.879944 639.965210,622.473450 
	C640.553345,623.675781 641.631958,625.483948 642.548218,625.523315 
	C645.421143,625.646973 648.324707,625.059326 651.216309,624.747253 
	C650.640198,622.232849 650.391052,619.577271 649.385864,617.248047 
	C648.562988,615.341187 647.107117,613.483643 645.468994,612.190796 
	C637.962402,606.266296 629.490662,605.369263 620.502380,608.024048 
	C612.701660,610.327881 607.326050,616.820679 607.077576,624.152039 
	C606.811157,632.012390 610.608459,637.083801 619.479614,640.021118 
	C624.831665,641.793152 630.530945,642.628723 635.704956,644.775146 
	C637.985596,645.721375 640.741272,648.866394 640.762512,651.037781 
	C640.787109,653.546265 638.625549,657.019714 636.380127,658.434204 
	C628.921692,663.132507 620.129456,659.722168 616.932373,651.514771 
	C615.109924,646.836243 611.293213,649.494385 608.432007,649.608093 
	C607.667908,649.638489 606.159363,652.994141 606.487793,654.496216 
	C607.672729,659.914673 610.851746,664.211914 615.911682,666.724060 
	C623.086121,670.286072 630.627258,670.569946 638.274231,668.510620 
	C646.493713,666.297180 651.925659,659.539978 652.360474,651.174072 
	C652.757874,643.526672 648.452454,637.804016 639.196167,634.294983 
M793.721497,570.500000 
	C793.700989,559.183350 793.508118,547.863098 793.748840,536.552002 
	C793.839111,532.308838 792.353149,531.241455 788.300720,531.196899 
	C783.967285,531.149292 782.851868,532.790161 783.083740,536.779114 
	C783.366821,541.649231 783.151001,546.548340 783.151001,551.298218 
	C778.999756,549.784668 775.574951,547.814453 771.956787,547.349487 
	C760.220459,545.841248 751.592651,553.341248 749.551514,566.935425 
	C748.047058,576.955627 750.437317,586.165100 759.298767,591.988892 
	C767.052368,597.084595 775.112366,596.143799 782.619934,589.783752 
	C783.908264,595.377991 788.169373,594.115417 791.363647,593.410339 
	C792.539124,593.150879 793.520447,589.584045 793.645264,587.470032 
	C793.958496,582.163574 793.732422,576.825378 793.721497,570.500000 
M711.284668,563.912903 
	C712.832581,562.841431 714.977356,562.108582 715.814331,560.633667 
	C718.148193,556.520386 721.920044,554.603760 726.707336,556.171021 
	C731.121277,557.616089 733.052917,560.697571 731.889038,565.917908 
	C728.620483,566.062866 725.292542,565.926575 722.063232,566.426819 
	C718.175415,567.029053 714.092834,567.575806 710.591370,569.210571 
	C704.181396,572.203491 701.796692,578.130310 703.290710,585.066345 
	C704.413696,590.279907 709.479492,594.264282 715.769287,594.924561 
	C722.204895,595.600159 727.950500,594.146851 733.084534,588.183655 
	C732.817749,595.605652 737.396179,593.635071 740.551697,593.606079 
	C741.593933,593.596497 743.516357,591.789307 743.514282,590.807251 
	C743.493591,580.840027 743.619751,570.833679 742.765869,560.919128 
	C742.065186,552.783813 736.765442,548.317322 728.590088,547.256470 
	C717.796204,545.855896 709.128967,549.565369 705.927856,556.955627 
	C703.418152,562.749695 704.116638,563.823975 711.284668,563.912903 
M685.568481,658.387878 
	C676.767273,663.157898 668.708984,658.861389 668.458984,648.701782 
	C678.708618,648.701782 688.957947,648.701782 699.077881,648.701782 
	C701.099121,638.135742 696.235596,627.333435 688.143372,623.601746 
	C679.029419,619.398865 667.331726,622.395447 661.314087,630.716553 
	C656.244995,637.726074 655.901062,645.661621 658.043884,653.662964 
	C661.352844,666.018677 672.937073,672.307556 685.275818,668.836914 
	C692.196960,666.890198 696.660583,662.540283 699.024292,655.241394 
	C693.977478,654.170349 689.512695,653.047546 685.568481,658.387878 
M817.616211,573.843872 
	C824.767029,573.846313 831.918152,573.815674 839.068604,573.870239 
	C841.347351,573.887695 842.859375,573.512451 842.859863,570.653870 
	C842.861206,561.993103 840.621277,554.245056 832.638062,549.855957 
	C824.831970,545.564270 816.485413,545.442566 809.048706,550.799316 
	C800.415649,557.017822 798.711426,566.154846 800.046997,576.109802 
	C801.279541,585.296570 806.709473,591.277039 815.226746,594.143188 
	C827.141296,598.152588 839.006104,591.899597 841.546448,580.400574 
	C837.190857,580.068726 833.199890,578.761475 829.456116,583.132141 
	C826.333801,586.777222 821.571716,587.105042 817.048279,584.840576 
	C812.758301,582.692993 810.947266,579.140564 810.844299,573.847961 
	C813.064514,573.847961 814.861389,573.847961 817.616211,573.843872 
M796.815002,659.219910 
	C793.278137,656.950806 790.833252,654.050476 791.053528,648.758789 
	C792.945435,648.758789 794.707581,648.756287 796.469727,648.759216 
	C803.795898,648.771362 811.122192,648.758728 818.448059,648.813660 
	C820.823608,648.831482 822.810730,648.642456 822.747253,645.477051 
	C822.586914,637.479553 820.688171,630.064514 813.776917,625.335510 
	C806.739563,620.520203 798.838806,620.675903 791.405579,624.317932 
	C781.324036,629.257507 776.992188,644.741150 781.930237,656.410645 
	C787.410645,669.361877 803.651489,673.970032 814.956787,665.697571 
	C818.485535,663.115417 821.103394,659.840454 821.670349,653.604919 
	C817.410706,654.663635 812.976074,654.477051 810.731384,656.602783 
	C806.567993,660.545593 802.518799,661.121704 796.815002,659.219910 
M772.645935,623.106384 
	C769.396790,622.629578 767.770752,624.120667 767.034058,627.257019 
	C766.275269,630.487427 765.132507,633.629395 764.121521,636.798462 
	C762.193542,642.842041 760.239868,648.877441 758.296814,654.916199 
	C754.169556,645.403809 751.234802,636.051941 748.038940,626.790039 
	C747.546143,625.361938 746.012817,623.577881 744.683594,623.304321 
	C742.025391,622.757080 739.175354,623.141907 735.686890,623.141907 
	C736.418152,625.998108 736.781921,628.090027 737.486450,630.060181 
	C741.574768,641.493164 745.923706,652.836975 749.785645,664.344788 
	C751.109680,668.290100 753.501953,668.794922 756.969849,668.724731 
	C760.715759,668.648987 763.985352,668.954041 765.579956,664.126343 
	C769.700500,651.651306 774.364380,639.356079 778.761963,626.971558 
	C779.115112,625.976990 779.090088,624.848022 779.336304,623.106140 
	C777.059082,623.106140 775.278442,623.106140 772.645935,623.106384 
M837.948792,668.404663 
	C838.302307,666.868835 838.933533,665.337952 838.960693,663.796387 
	C839.069031,657.640198 838.797180,651.473572 839.025330,645.324158 
	C839.358154,636.353333 844.069031,632.369141 852.913269,633.177429 
	C853.543335,633.235107 854.177124,633.251892 855.556946,633.330017 
	C855.556946,630.810547 855.492798,628.543335 855.570984,626.280945 
	C855.713379,622.160950 853.619873,620.597534 849.944763,621.941895 
	C846.171021,623.322266 842.624756,625.324463 838.920349,627.082336 
	C838.912292,621.489136 834.318848,622.972351 830.808716,623.222717 
	C826.381836,623.538269 828.313782,627.266113 828.268555,629.468811 
	C828.060608,639.617432 828.120483,649.773193 828.199524,659.925476 
	C828.269043,668.855835 826.541016,668.851807 837.948792,668.404663 
M715.944336,658.463684 
	C715.945251,653.810852 715.867859,649.156311 715.964905,644.505493 
	C716.122925,636.933655 721.065308,632.492371 728.502502,633.081360 
	C729.424744,633.154419 730.357849,633.091309 732.304321,633.091309 
	C731.738525,629.241577 731.233704,625.806702 730.728882,622.371826 
	C726.031677,623.206238 721.334473,624.040710 716.637329,624.875183 
	C716.549011,626.026489 716.117981,625.955017 716.018005,625.733887 
	C713.971802,621.209167 709.985718,623.403320 706.859131,623.455200 
	C706.234192,623.465637 705.178467,626.906372 705.152039,628.777100 
	C704.992554,640.074585 705.314880,651.382996 704.965637,662.671875 
	C704.811523,667.650146 706.605896,669.326538 711.261292,668.688232 
	C712.684265,668.493103 714.125366,668.430420 715.943604,668.273926 
	C715.943604,665.048889 715.943604,662.246643 715.944336,658.463684 
M682.713562,584.410706 
	C682.720825,579.582886 682.536438,574.745422 682.778687,569.929443 
	C683.175415,562.040710 687.720825,557.814209 695.203247,558.034912 
	C696.304626,558.067383 697.403381,558.191528 699.458984,558.344299 
	C698.882019,554.400085 699.442261,548.753479 697.671692,547.890808 
	C692.213867,545.231628 687.459595,549.076233 683.288879,552.973511 
	C681.705139,547.588745 679.374084,546.844116 672.263367,549.036377 
	C672.263367,563.761108 672.263367,578.489868 672.263367,593.150452 
	C682.469604,594.917114 682.724854,594.718750 682.713562,584.410706 
z"/>
<path fill="#7483F8" opacity="1.000000" stroke="none" 
	d="
M490.093689,689.910339 
	C487.776855,689.902954 485.940796,689.967102 484.113190,689.871094 
	C480.400360,689.676208 478.251984,687.810181 478.127350,683.956238 
	C478.089691,682.791443 478.113647,681.624451 478.113739,680.458496 
	C478.118835,613.664246 478.156219,546.869934 478.059204,480.075867 
	C478.052673,475.570251 479.298889,472.154327 482.598999,469.044250 
	C504.024567,448.852417 525.299011,428.500061 546.760132,408.346436 
	C548.319946,406.881653 551.565613,405.359680 552.944153,406.044617 
	C554.505920,406.820526 555.604614,410.054688 555.607788,412.221863 
	C555.739136,502.002411 555.729980,591.783203 555.717590,681.563904 
	C555.716675,688.282288 554.103210,689.882629 547.545227,689.889893 
	C528.556274,689.910828 509.567291,689.904846 490.093689,689.910339 
z"/>
<path fill="#7584F8" opacity="1.000000" stroke="none" 
	d="
M493.850220,361.851746 
	C504.053619,352.263672 513.908447,342.817078 524.012512,333.644989 
	C527.462830,330.512970 527.527039,328.667145 523.872620,325.466919 
	C517.495483,319.882477 511.644806,313.679840 505.787872,307.532135 
	C504.579895,306.264221 503.364258,303.726349 503.869049,302.456177 
	C504.394104,301.135162 506.931427,300.432129 508.716644,299.852417 
	C510.098511,299.403625 511.677307,299.465424 513.168701,299.464020 
	C535.326782,299.443024 557.484924,299.433838 579.643005,299.458771 
	C586.297180,299.466248 587.018250,300.259674 587.018005,306.997681 
	C587.017212,329.488953 587.079346,351.980621 586.926331,374.470856 
	C586.911072,376.713501 585.592102,378.947266 584.878174,381.185150 
	C582.540833,380.357208 579.665344,380.127594 577.961487,378.595245 
	C571.403076,372.697144 565.224304,366.377258 558.892273,360.226715 
	C557.605591,358.976959 556.267822,357.779724 554.593140,356.223297 
	C544.331848,366.211029 534.395996,375.972748 524.361023,385.631409 
	C499.888489,409.186066 475.328552,432.649933 450.882019,456.231445 
	C427.630096,478.660675 404.511749,501.228333 381.264771,523.662720 
	C371.448395,533.135986 361.558563,542.540466 351.444641,551.691589 
	C349.554199,553.402100 346.446411,554.592224 343.888947,554.613037 
	C317.900726,554.824768 291.910095,554.762878 265.920227,554.728760 
	C260.907654,554.722168 258.482788,552.535278 258.385345,547.500916 
	C258.204865,538.174805 258.159210,528.838867 258.379913,519.514709 
	C258.527100,513.294983 261.110962,511.137695 267.653839,511.126862 
	C289.645264,511.090515 311.637054,511.042938 333.627899,511.159973 
	C337.033844,511.178070 339.500702,510.228241 341.991180,507.820099 
	C370.240570,480.504333 398.623230,453.326416 426.938141,426.078308 
	C445.415649,408.296997 463.830658,390.450684 482.297485,372.658234 
	C486.009552,369.081787 489.829254,365.617035 493.850220,361.851746 
z"/>
<path fill="#7483F8" opacity="1.000000" stroke="none" 
	d="
M455.253815,685.001465 
	C454.434753,688.753052 452.292145,689.930847 448.985626,689.922241 
	C427.665253,689.866821 406.344635,689.872253 385.024231,689.926086 
	C380.473663,689.937561 378.216248,687.865295 378.216217,683.319458 
	C378.215912,646.674866 378.228973,610.030212 378.196533,573.385620 
	C378.191437,567.660034 382.205963,564.491516 385.771271,561.047791 
	C391.274902,555.731750 396.914429,550.556396 402.422455,545.244751 
	C415.965179,532.184814 429.444550,519.059143 443.007660,506.020386 
	C444.913818,504.187927 447.170471,502.724274 449.222260,501.038055 
	C452.559143,498.295685 454.297424,499.973419 455.323608,503.279999 
	C455.659912,504.363617 455.674835,505.576752 455.675018,506.730652 
	C455.683960,565.028931 455.676819,623.327209 455.656647,681.625488 
	C455.656311,682.616821 455.476318,683.608215 455.253815,685.001465 
z"/>
<path fill="#7383F8" opacity="1.000000" stroke="none" 
	d="
M354.350708,584.085815 
	C354.723083,590.430908 354.987091,596.412781 354.995422,602.395081 
	C355.032288,628.891235 355.014954,655.387634 354.971954,681.883789 
	C354.961456,688.349182 353.406342,689.884460 347.040405,689.889099 
	C320.377411,689.908630 293.714447,689.908508 267.051453,689.891357 
	C260.010468,689.886841 258.442688,688.398376 258.388855,680.891602 
	C258.269440,664.228088 258.263855,647.562805 258.347961,630.898987 
	C258.419403,616.743713 258.645416,602.588806 258.876770,588.434998 
	C258.973816,582.498413 260.128662,581.301697 265.870270,581.293152 
	C293.033051,581.252625 320.196228,581.217468 347.358093,581.381653 
	C349.618256,581.395325 351.869354,582.907104 354.350708,584.085815 
z"/>
<path fill="#7584F8" opacity="1.000000" stroke="none" 
	d="
M733.185364,438.737976 
	C738.332031,452.274200 743.332458,465.451782 748.788818,479.830841 
	C751.509888,472.598694 753.858887,466.459015 756.132446,460.291473 
	C761.140564,446.705750 766.233398,433.148956 771.013428,419.483063 
	C772.268677,415.894287 774.280212,414.342010 777.891968,414.442810 
	C783.546387,414.600677 789.221924,414.519196 794.840942,415.046265 
	C796.177185,415.171631 797.572571,417.150269 798.466187,418.574280 
	C798.996399,419.419312 798.615479,420.846558 798.616028,422.012024 
	C798.629944,449.661896 798.647339,477.311798 798.645325,504.961670 
	C798.644836,511.487396 798.531494,511.567413 791.862000,511.585114 
	C779.994019,511.616577 779.983276,511.616608 779.977234,499.827026 
	C779.967834,481.554749 779.974731,463.282501 779.186890,444.814484 
	C775.832947,454.112183 772.519348,463.424713 769.114807,472.703888 
	C764.815430,484.422089 760.244934,496.045349 756.187439,507.845764 
	C754.289062,513.366638 750.070984,511.095917 746.626160,511.562836 
	C743.428040,511.996338 741.520691,510.820007 740.352844,507.458771 
	C733.254333,487.028931 725.923035,466.679932 718.650085,446.310883 
	C718.453491,445.760376 718.036865,445.288422 717.100281,443.771515 
	C717.100281,464.915619 717.107178,484.838257 717.096558,504.760895 
	C717.092896,511.572266 717.072815,511.572266 710.187378,511.587402 
	C698.851501,511.612335 698.851562,511.612335 698.851318,500.199066 
	C698.850830,474.056671 698.847778,447.914246 698.851562,421.771851 
	C698.852539,414.888641 698.862061,414.885254 705.980835,414.876678 
	C710.644653,414.871063 715.317566,415.054535 719.969360,414.818268 
	C723.336304,414.647247 725.098938,415.808044 726.150574,419.102753 
	C728.224121,425.599304 730.718628,431.961548 733.185364,438.737976 
z"/>
<path fill="#7584F8" opacity="1.000000" stroke="none" 
	d="
M610.295166,456.000000 
	C610.298035,443.667236 610.413635,431.832794 610.239868,420.002625 
	C610.180725,415.976837 611.457397,414.387878 615.671143,414.344849 
	C631.064270,414.187561 631.062927,414.066254 631.062317,429.255798 
	C631.062012,437.916901 631.062256,446.578003 631.062256,456.625641 
	C633.036865,454.569397 634.430725,453.374695 635.517029,451.946106 
	C644.083130,440.681061 652.463745,429.271240 661.237549,418.171600 
	C662.739929,416.271027 665.752808,414.870026 668.225586,414.579346 
	C672.992798,414.018951 677.876038,414.315857 682.703430,414.482391 
	C684.021179,414.527802 685.311218,415.374817 686.614014,415.853973 
	C686.073853,416.995911 685.746826,418.316528 684.961670,419.253021 
	C673.838135,432.520142 662.651855,445.734650 651.484131,458.964691 
	C651.057861,459.469757 650.664795,460.002930 649.955811,460.905457 
	C663.427124,477.151917 676.914856,493.418182 690.402588,509.684448 
	C690.096191,510.137054 689.789795,510.589691 689.483398,511.042297 
	C681.800049,511.042297 674.030457,511.691559 666.480469,510.688141 
	C663.857178,510.339539 661.641785,506.008423 659.473816,503.308594 
	C651.136719,492.926361 642.883057,482.476990 634.634644,472.024017 
	C633.834534,471.009979 633.285156,469.798126 632.619385,468.678162 
	C632.104431,468.988281 631.589417,469.298401 631.074463,469.608551 
	C631.074463,480.177795 631.078003,490.747070 631.073425,501.316315 
	C631.069031,511.575592 631.065430,511.591888 620.678223,511.589600 
	C609.348083,511.587097 610.306946,512.641846 610.296875,500.998016 
	C610.283997,486.165344 610.294373,471.332672 610.295166,456.000000 
z"/>
<path fill="#7685F8" opacity="1.000000" stroke="none" 
	d="
M869.031311,428.017029 
	C869.049438,414.404510 869.049438,414.404510 882.138611,414.417145 
	C889.611572,414.424347 889.596313,414.424347 889.599670,421.876312 
	C889.607727,439.542511 889.300781,457.216675 889.724854,474.873108 
	C890.405762,503.220520 866.881958,516.189819 844.282654,513.231506 
	C826.084106,510.849213 814.661865,500.753845 811.644287,485.595276 
	C811.353271,484.133331 811.145813,482.626251 811.143188,481.139709 
	C811.106567,460.473572 811.175842,439.806976 811.046692,419.141571 
	C811.024658,415.613617 812.391785,414.318115 815.726990,414.405762 
	C819.224487,414.497711 822.739380,414.612427 826.222839,414.371948 
	C830.457581,414.079590 831.690918,415.950073 831.663513,419.977936 
	C831.533081,439.143250 831.735229,458.311066 831.567810,477.475769 
	C831.502380,484.969666 834.303589,490.835114 841.175720,493.470184 
	C849.045410,496.487762 857.170532,496.854797 864.199951,490.667633 
	C868.190430,487.155334 869.034668,482.486664 869.035278,477.512817 
	C869.037354,461.179779 869.032837,444.846771 869.031311,428.017029 
z"/>
<path fill="#7988F8" opacity="1.000000" stroke="none" 
	d="
M652.295898,572.744568 
	C648.835876,571.780151 645.408447,570.839600 641.987183,570.861206 
	C638.118591,570.885559 636.277710,570.116699 636.323914,565.673645 
	C636.368713,561.356689 638.324402,560.783691 641.864319,560.903809 
	C647.687683,561.101562 653.523438,561.023193 659.352051,560.934082 
	C661.792297,560.896790 662.998901,561.609985 663.012024,564.311890 
	C663.055176,573.130432 663.382935,581.948914 663.307861,590.764893 
	C663.299255,591.773804 661.382080,593.653870 660.446411,593.595093 
	C657.981384,593.440002 655.541687,592.518799 653.167908,591.686035 
	C652.832092,591.568237 652.920227,590.242004 652.701782,588.692139 
	C646.684204,594.426880 639.695801,596.203430 632.492920,594.757446 
	C627.123352,593.679504 621.457520,591.708191 617.074036,588.541992 
	C605.062988,579.866638 602.416748,559.799194 610.477295,545.293274 
	C618.265442,531.277466 633.880127,528.288574 647.895020,532.859314 
	C657.073364,535.852661 662.002441,542.875366 663.346436,552.395752 
	C657.052246,555.059204 653.778381,554.150635 650.752197,549.058960 
	C644.227417,538.080750 628.340881,538.160889 621.178101,549.208252 
	C615.962891,557.251831 616.696289,572.056213 622.736572,579.440369 
	C627.807434,585.639343 634.699158,586.497498 641.831970,584.996765 
	C647.882019,583.723816 651.674316,579.657593 652.295898,572.744568 
z"/>
<path fill="#7988F8" opacity="1.000000" stroke="none" 
	d="
M639.548462,634.453979 
	C648.452454,637.804016 652.757874,643.526672 652.360474,651.174072 
	C651.925659,659.539978 646.493713,666.297180 638.274231,668.510620 
	C630.627258,670.569946 623.086121,670.286072 615.911682,666.724060 
	C610.851746,664.211914 607.672729,659.914673 606.487793,654.496216 
	C606.159363,652.994141 607.667908,649.638489 608.432007,649.608093 
	C611.293213,649.494385 615.109924,646.836243 616.932373,651.514771 
	C620.129456,659.722168 628.921692,663.132507 636.380127,658.434204 
	C638.625549,657.019714 640.787109,653.546265 640.762512,651.037781 
	C640.741272,648.866394 637.985596,645.721375 635.704956,644.775146 
	C630.530945,642.628723 624.831665,641.793152 619.479614,640.021118 
	C610.608459,637.083801 606.811157,632.012390 607.077576,624.152039 
	C607.326050,616.820679 612.701660,610.327881 620.502380,608.024048 
	C629.490662,605.369263 637.962402,606.266296 645.468994,612.190796 
	C647.107117,613.483643 648.562988,615.341187 649.385864,617.248047 
	C650.391052,619.577271 650.640198,622.232849 651.216309,624.747192 
	C648.324707,625.059326 645.421143,625.646973 642.548218,625.523315 
	C641.631958,625.483948 640.553345,623.675781 639.965210,622.473450 
	C636.740356,615.879944 625.098328,614.191528 620.213257,619.682068 
	C616.961426,623.336914 618.277527,628.162842 623.356506,629.875671 
	C628.543335,631.624695 633.908875,632.843811 639.548462,634.453979 
z"/>
<path fill="#7887F8" opacity="1.000000" stroke="none" 
	d="
M793.722046,570.999939 
	C793.732422,576.825378 793.958496,582.163574 793.645264,587.470032 
	C793.520447,589.584045 792.539124,593.150879 791.363647,593.410339 
	C788.169373,594.115417 783.908264,595.377991 782.619934,589.783752 
	C775.112366,596.143799 767.052368,597.084595 759.298767,591.988892 
	C750.437317,586.165100 748.047058,576.955627 749.551514,566.935425 
	C751.592651,553.341248 760.220459,545.841248 771.956787,547.349487 
	C775.574951,547.814453 778.999756,549.784668 783.151001,551.298218 
	C783.151001,546.548340 783.366821,541.649231 783.083740,536.779114 
	C782.851868,532.790161 783.967285,531.149292 788.300720,531.196899 
	C792.353149,531.241455 793.839111,532.308838 793.748840,536.552002 
	C793.508118,547.863098 793.700989,559.183350 793.722046,570.999939 
M765.931580,583.990356 
	C775.534607,587.566101 781.767395,584.186462 783.145874,574.264526 
	C783.564087,571.254333 783.117249,568.007568 782.479309,564.993408 
	C781.439392,560.079529 778.233276,557.240417 773.070984,556.911133 
	C767.633423,556.564209 763.667847,558.953186 761.554626,563.829407 
	C758.585144,570.681641 759.954041,577.999084 765.931580,583.990356 
z"/>
<path fill="#7A89F8" opacity="1.000000" stroke="none" 
	d="
M710.866699,563.910522 
	C704.116638,563.823975 703.418152,562.749695 705.927856,556.955627 
	C709.128967,549.565369 717.796204,545.855896 728.590088,547.256470 
	C736.765442,548.317322 742.065186,552.783813 742.765869,560.919128 
	C743.619751,570.833679 743.493591,580.840027 743.514282,590.807251 
	C743.516357,591.789307 741.593933,593.596497 740.551697,593.606079 
	C737.396179,593.635071 732.817749,595.605652 733.084534,588.183655 
	C727.950500,594.146851 722.204895,595.600159 715.769287,594.924561 
	C709.479492,594.264282 704.413696,590.279907 703.290710,585.066345 
	C701.796692,578.130310 704.181396,572.203491 710.591370,569.210571 
	C714.092834,567.575806 718.175415,567.029053 722.063232,566.426819 
	C725.292542,565.926575 728.620483,566.062866 731.889038,565.917908 
	C733.052917,560.697571 731.121277,557.616089 726.707336,556.171021 
	C721.920044,554.603760 718.148193,556.520386 715.814331,560.633667 
	C714.977356,562.108582 712.832581,562.841431 710.866699,563.910522 
M732.819031,575.604187 
	C732.433350,574.934204 731.958374,573.644958 731.675232,573.685791 
	C726.353943,574.453186 720.987366,575.120178 715.809570,576.487305 
	C714.771057,576.761536 713.767151,579.937500 714.027771,581.571167 
	C714.281677,583.162476 715.887634,585.181335 717.401855,585.817383 
	C724.116394,588.637207 730.793152,584.379028 732.819031,575.604187 
z"/>
<path fill="#7B8AF8" opacity="1.000000" stroke="none" 
	d="
M685.868042,658.129395 
	C689.512695,653.047546 693.977478,654.170349 699.024292,655.241394 
	C696.660583,662.540283 692.196960,666.890198 685.275818,668.836914 
	C672.937073,672.307556 661.352844,666.018677 658.043884,653.662964 
	C655.901062,645.661621 656.244995,637.726074 661.314087,630.716553 
	C667.331726,622.395447 679.029419,619.398865 688.143372,623.601746 
	C696.235596,627.333435 701.099121,638.135742 699.077881,648.701782 
	C688.957947,648.701782 678.708618,648.701782 668.458984,648.701782 
	C668.708984,658.861389 676.767273,663.157898 685.868042,658.129395 
M686.939026,641.026672 
	C687.593628,640.272583 688.814148,639.515930 688.810730,638.764771 
	C688.789001,633.977905 683.115234,630.259216 677.005005,630.841370 
	C671.579773,631.358337 668.000793,635.598572 668.778503,641.051697 
	C674.492554,641.051697 680.271484,641.051697 686.939026,641.026672 
z"/>
<path fill="#7B8AF8" opacity="1.000000" stroke="none" 
	d="
M817.137207,573.845947 
	C814.861389,573.847961 813.064514,573.847961 810.844299,573.847961 
	C810.947266,579.140564 812.758301,582.692993 817.048279,584.840576 
	C821.571716,587.105042 826.333801,586.777222 829.456116,583.132141 
	C833.199890,578.761475 837.190857,580.068726 841.546448,580.400574 
	C839.006104,591.899597 827.141296,598.152588 815.226746,594.143188 
	C806.709473,591.277039 801.279541,585.296570 800.046997,576.109802 
	C798.711426,566.154846 800.415649,557.017822 809.048706,550.799316 
	C816.485413,545.442566 824.831970,545.564270 832.638062,549.855957 
	C840.621277,554.245056 842.861206,561.993103 842.859863,570.653870 
	C842.859375,573.512451 841.347351,573.887695 839.068604,573.870239 
	C831.918152,573.815674 824.767029,573.846313 817.137207,573.845947 
M823.437622,566.090637 
	C826.170349,566.090637 828.903076,566.090637 831.693970,566.090637 
	C830.925476,558.906738 827.907532,555.905457 822.019714,555.786194 
	C815.566772,555.655579 812.266724,558.604736 811.203918,566.090271 
	C815.014954,566.090271 818.740967,566.090271 823.437622,566.090637 
z"/>
<path fill="#7A89F8" opacity="1.000000" stroke="none" 
	d="
M797.183716,659.399536 
	C802.518799,661.121704 806.567993,660.545593 810.731384,656.602783 
	C812.976074,654.477051 817.410706,654.663635 821.670349,653.604919 
	C821.103394,659.840454 818.485535,663.115417 814.956787,665.697571 
	C803.651489,673.970032 787.410645,669.361877 781.930237,656.410645 
	C776.992188,644.741150 781.324036,629.257507 791.405579,624.317932 
	C798.838806,620.675903 806.739563,620.520203 813.776917,625.335510 
	C820.688171,630.064514 822.586914,637.479553 822.747253,645.477051 
	C822.810730,648.642456 820.823608,648.831482 818.448059,648.813660 
	C811.122192,648.758728 803.795898,648.771362 796.469727,648.759216 
	C794.707581,648.756287 792.945435,648.758789 791.053528,648.758789 
	C790.833252,654.050476 793.278137,656.950806 797.183716,659.399536 
M804.086243,630.847595 
	C795.703430,630.709961 791.978638,633.535400 791.403625,640.751343 
	C798.150757,640.751343 804.875183,640.751343 812.076477,640.751343 
	C811.759094,635.646362 809.515137,632.472107 804.086243,630.847595 
z"/>
<path fill="#7A89F8" opacity="1.000000" stroke="none" 
	d="
M773.071899,623.106262 
	C775.278442,623.106140 777.059082,623.106140 779.336304,623.106140 
	C779.090088,624.848022 779.115112,625.976990 778.761963,626.971558 
	C774.364380,639.356079 769.700500,651.651306 765.579956,664.126343 
	C763.985352,668.954041 760.715759,668.648987 756.969849,668.724731 
	C753.501953,668.794922 751.109680,668.290100 749.785645,664.344788 
	C745.923706,652.836975 741.574768,641.493164 737.486450,630.060181 
	C736.781921,628.090027 736.418152,625.998108 735.686890,623.141907 
	C739.175354,623.141907 742.025391,622.757080 744.683594,623.304321 
	C746.012817,623.577881 747.546143,625.361938 748.038940,626.790039 
	C751.234802,636.051941 754.169556,645.403809 758.296814,654.916199 
	C760.239868,648.877441 762.193542,642.842041 764.121521,636.798462 
	C765.132507,633.629395 766.275269,630.487427 767.034058,627.257019 
	C767.770752,624.120667 769.396790,622.629578 773.071899,623.106262 
z"/>
<path fill="#7B8AF8" opacity="1.000000" stroke="none" 
	d="
M837.524048,668.514404 
	C826.541016,668.851807 828.269043,668.855835 828.199524,659.925476 
	C828.120483,649.773193 828.060608,639.617432 828.268555,629.468811 
	C828.313782,627.266113 826.381836,623.538269 830.808716,623.222717 
	C834.318848,622.972351 838.912292,621.489136 838.920349,627.082336 
	C842.624756,625.324463 846.171021,623.322266 849.944763,621.941895 
	C853.619873,620.597534 855.713379,622.160950 855.570984,626.280945 
	C855.492798,628.543335 855.556946,630.810547 855.556946,633.330017 
	C854.177124,633.251892 853.543335,633.235107 852.913269,633.177429 
	C844.069031,632.369141 839.358154,636.353333 839.025330,645.324158 
	C838.797180,651.473572 839.069031,657.640198 838.960693,663.796387 
	C838.933533,665.337952 838.302307,666.868835 837.524048,668.514404 
z"/>
<path fill="#7B8AF8" opacity="1.000000" stroke="none" 
	d="
M715.943970,658.954102 
	C715.943604,662.246643 715.943604,665.048889 715.943604,668.273926 
	C714.125366,668.430420 712.684265,668.493103 711.261292,668.688232 
	C706.605896,669.326538 704.811523,667.650146 704.965637,662.671875 
	C705.314880,651.382996 704.992554,640.074585 705.152039,628.777100 
	C705.178467,626.906372 706.234192,623.465637 706.859131,623.455200 
	C709.985718,623.403320 713.971802,621.209167 716.018005,625.733887 
	C716.117981,625.955017 716.549011,626.026489 716.637329,624.875183 
	C721.334473,624.040710 726.031677,623.206238 730.728882,622.371826 
	C731.233704,625.806702 731.738525,629.241577 732.304321,633.091309 
	C730.357849,633.091309 729.424744,633.154419 728.502502,633.081360 
	C721.065308,632.492371 716.122925,636.933655 715.964905,644.505493 
	C715.867859,649.156311 715.945251,653.810852 715.943970,658.954102 
z"/>
<path fill="#7988F8" opacity="1.000000" stroke="none" 
	d="
M682.713928,584.892700 
	C682.724854,594.718750 682.469604,594.917114 672.263367,593.150452 
	C672.263367,578.489868 672.263367,563.761108 672.263367,549.036377 
	C679.374084,546.844116 681.705139,547.588745 683.288879,552.973511 
	C687.459595,549.076233 692.213867,545.231628 697.671692,547.890808 
	C699.442261,548.753479 698.882019,554.400085 699.458984,558.344299 
	C697.403381,558.191528 696.304626,558.067383 695.203247,558.034912 
	C687.720825,557.814209 683.175415,562.040710 682.778687,569.929443 
	C682.536438,574.745422 682.720825,579.582886 682.713928,584.892700 
z"/>
<path fill="#FAFBFF" opacity="1.000000" stroke="none" 
	d="
M765.590332,583.784424 
	C759.954041,577.999084 758.585144,570.681641 761.554626,563.829407 
	C763.667847,558.953186 767.633423,556.564209 773.070984,556.911133 
	C778.233276,557.240417 781.439392,560.079529 782.479309,564.993408 
	C783.117249,568.007568 783.564087,571.254333 783.145874,574.264526 
	C781.767395,584.186462 775.534607,587.566101 765.590332,583.784424 
z"/>
<path fill="#F7F8FF" opacity="1.000000" stroke="none" 
	d="
M732.794434,575.986450 
	C730.793152,584.379028 724.116394,588.637207 717.401855,585.817383 
	C715.887634,585.181335 714.281677,583.162476 714.027771,581.571167 
	C713.767151,579.937500 714.771057,576.761536 715.809570,576.487305 
	C720.987366,575.120178 726.353943,574.453186 731.675232,573.685791 
	C731.958374,573.644958 732.433350,574.934204 732.794434,575.986450 
z"/>
<path fill="#F6F7FF" opacity="1.000000" stroke="none" 
	d="
M686.494751,641.039185 
	C680.271484,641.051697 674.492554,641.051697 668.778503,641.051697 
	C668.000793,635.598572 671.579773,631.358337 677.005005,630.841370 
	C683.115234,630.259216 688.789001,633.977905 688.810730,638.764771 
	C688.814148,639.515930 687.593628,640.272583 686.494751,641.039185 
z"/>
<path fill="#F7F8FF" opacity="1.000000" stroke="none" 
	d="
M822.952271,566.090454 
	C818.740967,566.090271 815.014954,566.090271 811.203918,566.090271 
	C812.266724,558.604736 815.566772,555.655579 822.019714,555.786194 
	C827.907532,555.905457 830.925476,558.906738 831.693970,566.090637 
	C828.903076,566.090637 826.170349,566.090637 822.952271,566.090454 
z"/>
<path fill="#F6F7FF" opacity="1.000000" stroke="none" 
	d="
M804.500854,630.896851 
	C809.515137,632.472107 811.759094,635.646362 812.076477,640.751343 
	C804.875183,640.751343 798.150757,640.751343 791.403625,640.751343 
	C791.978638,633.535400 795.703430,630.709961 804.500854,630.896851 
z"/>
</svg>