<svg width="249" height="21" viewBox="0 0 249 21" fill="none" xmlns="http://www.w3.org/2000/svg">
<path d="M0.288 20V0.439999H3.168V9.992L12.912 0.439999H16.584L6.84 9.896L16.872 20H13.032L3.168 10.184V20H0.288ZM28.131 20L21.699 4.592V20H18.843V0.439999H23.139L29.811 16.136L36.075 0.439999H40.347V20H37.467V4.568L31.083 20H28.131ZM56.0411 0.439999H58.9211V11.144C58.9211 17.552 56.4971 20.12 50.7611 20.12C45.0251 20.12 42.6011 17.552 42.6011 11.144V0.439999H45.4811V11.288C45.4811 15.488 47.0891 17.24 50.7611 17.24C54.4331 17.24 56.0411 15.488 56.0411 11.288V0.439999ZM77.0483 20.12C70.2323 20.12 67.6163 16.52 67.6163 10.976V9.32C67.6163 3.368 71.0243 0.319999 77.0243 0.319999C83.4323 0.319999 86.3363 3.272 86.4083 7.832V8.048H83.5523V7.88C83.4563 4.736 81.3923 3.2 76.9523 3.2C72.5363 3.2 70.4963 4.808 70.4963 9.68V10.712C70.4963 15.68 72.5603 17.24 77.0483 17.24C80.8163 17.24 83.5283 16.664 83.5283 12.536V12.464H76.9523V9.608H86.4083V20H84.7043L84.2003 16.664C83.1443 18.68 80.8643 20.12 77.0483 20.12ZM91.5368 6.68C91.5368 4.424 93.2408 2.6 96.6008 2.6C97.0568 2.6 97.2728 2.624 97.5368 2.696V5.864C95.5688 5.384 91.5368 5.264 91.5368 7.4V20H88.6568V2.72H91.5368V6.68ZM102.505 7.376V7.736H99.6253V7.232C99.6253 4.352 101.929 2.6 106.225 2.6C111.073 2.6 113.281 4.232 113.281 8.36V20H110.401V16.04C110.401 18.248 108.601 20.12 104.833 20.12C101.257 20.12 99.0733 18.464 99.0733 15.368V15.2C99.0733 9.536 105.721 10.112 110.401 9.104V8.672C110.401 6.32 109.609 5.48 106.225 5.48C103.321 5.48 102.505 6.128 102.505 7.376ZM101.953 15.128C101.953 16.616 102.913 17.528 105.073 17.528C108.769 17.528 110.401 16.784 110.401 15.32V11.648C104.473 12.536 101.953 12.632 101.953 14.864V15.128ZM128.028 6.656V0.439999H130.908V20H128.028V16.064C128.028 18.248 126.348 20.12 122.652 20.12C117.732 20.12 115.548 17.072 115.548 12.32V10.4C115.548 5.648 117.732 2.6 122.652 2.6C126.348 2.6 128.028 4.472 128.028 6.656ZM128.028 7.376C128.028 5.888 126.636 5.192 123.3 5.192C120.012 5.192 118.428 6.512 118.428 10.832V11.888C118.428 16.208 120.012 17.528 123.3 17.528C126.636 17.528 128.028 16.832 128.028 15.344V7.376ZM148.526 12.008H136.046C136.094 15.944 137.558 17.24 140.774 17.24C144.11 17.24 145.646 16.424 145.646 13.88V13.736H148.526V14.312C148.526 17.84 146.15 20.12 140.846 20.12C135.374 20.12 133.166 17.048 133.166 12.296V10.4C133.166 5.672 135.422 2.6 140.99 2.6C146.198 2.6 148.526 5.096 148.526 8.96V12.008ZM140.918 5.48C137.99 5.48 136.454 6.488 136.118 9.416H145.646V9.392C145.646 6.416 144.158 5.48 140.918 5.48ZM160.148 12.92C160.148 16.064 162.116 17.24 166.004 17.24C169.844 17.24 171.764 16.616 171.764 14.648V14.504C171.764 12.536 170.636 11.768 166.148 11.576C159.092 11.288 157.268 9.512 157.268 6.176V5.864C157.268 2.576 160.148 0.319999 165.956 0.319999C171.884 0.319999 174.62 2.936 174.62 6.992V7.184H171.74V7.016C171.74 4.448 169.916 3.2 165.884 3.2C161.684 3.2 160.148 4.112 160.148 5.792V5.888C160.148 7.712 161.324 8.456 166.1 8.696C172.628 9.032 174.62 10.616 174.62 14.384V14.552C174.62 18.632 171.692 20.12 165.956 20.12C159.836 20.12 157.268 17.96 157.268 12.968V12.8H160.148V12.92ZM192.003 12.008H179.523C179.571 15.944 181.035 17.24 184.251 17.24C187.587 17.24 189.123 16.424 189.123 13.88V13.736H192.003V14.312C192.003 17.84 189.627 20.12 184.323 20.12C178.851 20.12 176.643 17.048 176.643 12.296V10.4C176.643 5.672 178.899 2.6 184.467 2.6C189.675 2.6 192.003 5.096 192.003 8.96V12.008ZM184.395 5.48C181.467 5.48 179.931 6.488 179.595 9.416H189.123V9.392C189.123 6.416 187.635 5.48 184.395 5.48ZM197.141 6.68C197.141 4.424 198.845 2.6 202.205 2.6C202.661 2.6 202.877 2.624 203.141 2.696V5.864C201.173 5.384 197.141 5.264 197.141 7.4V20H194.261V2.72H197.141V6.68ZM218.586 2.72H221.538L214.986 20H211.698L205.146 2.72H208.122L213.354 17.072L218.586 2.72ZM237.098 12.008H224.618C224.666 15.944 226.13 17.24 229.346 17.24C232.682 17.24 234.218 16.424 234.218 13.88V13.736H237.098V14.312C237.098 17.84 234.722 20.12 229.418 20.12C223.946 20.12 221.738 17.048 221.738 12.296V10.4C221.738 5.672 223.994 2.6 229.562 2.6C234.77 2.6 237.098 5.096 237.098 8.96V12.008ZM229.49 5.48C226.562 5.48 225.026 6.488 224.69 9.416H234.218V9.392C234.218 6.416 232.73 5.48 229.49 5.48ZM242.235 6.68C242.235 4.424 243.939 2.6 247.299 2.6C247.755 2.6 247.971 2.624 248.235 2.696V5.864C246.267 5.384 242.235 5.264 242.235 7.4V20H239.355V2.72H242.235V6.68Z" fill="black"/>
</svg>
